<svg xmlns="http://www.w3.org/2000/svg" xmlns:xlink="http://www.w3.org/1999/xlink" width="355.388" height="52.922" viewBox="0 0 355.388 52.922"><defs><style>.a{fill:#286c57;}.b{clip-path:url(#a);}</style><clipPath id="a"><rect class="a" width="276.401" height="30.312"/></clipPath></defs><g transform="translate(-141.013 -23.153)"><g transform="translate(220 33.885)"><g class="b" transform="translate(0 0)"><path class="a" d="M0,.167H9.382c7.545,0,10.923,3.128,10.923,7.757,0,3.167-1.836,5.42-5.131,6.59,4.048,1.164,5.923,3.542,5.923,6.67,0,5.212-5.045,8.3-11.715,8.3H0ZM5.17,4.923v7.962H8.879c4.212.045,6.045-2.125,6.045-4.337,0-2-1.5-3.625-5.292-3.625Zm0,11.673v8.129H9.632c4.378,0,5.878-1.917,5.878-4.087,0-2-1.67-4.042-7.131-4.042Z" transform="translate(0 0.331)"/><rect class="a" width="5.17" height="29.312" transform="translate(32.627 0.5)"/><path class="a" d="M32.126,0c9.09,0,15.68,6.381,15.68,15.135,0,8.632-6.715,15.135-15.68,15.135S16.491,23.808,16.491,15.135C16.491,6.673,23.331,0,32.126,0m.045,25.725a10.144,10.144,0,0,0,10.09-10.5c0-6.006-4.212-10.548-10.09-10.548-5.8,0-10.093,4.542-10.093,10.548a10.2,10.2,0,0,0,10.093,10.5" transform="translate(32.593 0.001)"/><path class="a" d="M58.006,14.427V26.978a19.984,19.984,0,0,1-11.34,3.334c-9.923,0-16.51-6.5-16.51-15.177C30.156,6.673,37.284,0,45.958,0,52.5,0,56.3,2.378,56.3,2.378L54.5,6.8a19.54,19.54,0,0,0-7.67-1.92c-6.878,0-11.09,4.337-11.09,10.343,0,5.875,4.5,10.212,10.59,10.212A19.788,19.788,0,0,0,53,24.267V19.055H44.83V14.427Z" transform="translate(59.601 0.001)"/><path class="a" d="M43.413.168h9.382c7.8,0,11.715,4.3,11.715,10.423,0,4.048-1.67,7.256-5.337,8.965l7.5,9.923H60.632L54.42,20.851q-1.25.125-2.628.125H48.583v8.5h-5.17Zm5.17,4.756V16.389h3.834c4.837,0,6.506-2.586,6.506-5.8S57.3,4.924,52.417,4.924Z" transform="translate(85.802 0.333)"/><path class="a" d="M54.669.168H73.721V4.924H59.839v8.209H72.432V17.72H59.839v7.006H73.721V29.48H54.669Z" transform="translate(108.048 0.333)"/><path class="a" d="M69.314,29.646h-5.42L77.654.084h1.17L92.581,29.646H87.033l-2.584-5.837H71.859ZM73.7,19.681h8.92L78.154,9.591Z" transform="translate(126.281 0.167)"/><path class="a" d="M85.608,30.312a19,19,0,0,1-9.59-2.792l1.795-4.67a14.856,14.856,0,0,0,7.965,2.625c3.459,0,5.042-1.708,5.042-3.584,0-1.958-1.083-3.128-6.378-5.087-5.712-2.083-7.67-4.795-7.67-8.3,0-4.42,3.584-8.507,9.84-8.507A17.242,17.242,0,0,1,94.7,2L93.031,6.59a14.7,14.7,0,0,0-6.545-1.961c-3.087,0-4.506,1.708-4.506,3.753,0,1.878,1.586,3.042,5.715,4.545,6.545,2.545,8.42,5.128,8.42,8.965,0,5.212-3.962,8.42-10.507,8.42" transform="translate(150.243 0.001)"/><path class="a" d="M86.463.168h19.052V4.924H91.633v8.209h12.593V17.72H91.633v7.006h13.882V29.48H86.463Z" transform="translate(170.886 0.333)"/></g></g><g transform="translate(2014 203)"><path class="a" d="M62.541,9.343C59.684,6.257,56.688,3.141,53.587,0c-3.1,3.141-6.1,6.257-8.955,9.343q4.667,4.726,8.955,9.373,4.278-4.637,8.955-9.373" transform="translate(-1901.471 -179.847)"/><path class="a" d="M56.15,22.354q4.569-4.4,9.507-8.805-3.935-4.9-8.283-9.905-4.905,4.4-9.467,8.815,4.345,5.01,8.243,9.9" transform="translate(-1888.444 -165.356)"/><path class="a" d="M59.138,12.458q-4.547-4.413-9.467-8.815-4.345,5.01-8.283,9.91,4.935,4.4,9.507,8.8,3.9-4.883,8.243-9.9" transform="translate(-1914.375 -165.356)"/><path class="a" d="M62.022,16.27Q57.886,11.6,53.356,6.9q-4.532,4.7-8.666,9.373,4.525,4.622,8.666,9.219,4.136-4.592,8.666-9.219" transform="translate(-1901.24 -152.413)"/></g></g></svg>