<svg xmlns="http://www.w3.org/2000/svg" xmlns:xlink="http://www.w3.org/1999/xlink" width="260" height="28.513" viewBox="0 0 260 28.513"><defs><style>.a{fill:#fff;}.b{clip-path:url(#a);}</style><clipPath id="a"><rect class="a" width="260" height="28.513"/></clipPath></defs><g transform="translate(0 0)"><g class="b" transform="translate(0 0)"><path class="a" d="M0,.167H8.825c7.1,0,10.275,2.943,10.275,7.3,0,2.979-1.727,5.1-4.827,6.2,3.808,1.095,5.572,3.332,5.572,6.274,0,4.9-4.746,7.8-11.02,7.8H0ZM4.863,4.641v7.489H8.352c3.962.042,5.686-2,5.686-4.079,0-1.881-1.411-3.41-4.978-3.41Zm0,10.981v7.646h4.2c4.118,0,5.53-1.8,5.53-3.844,0-1.879-1.571-3.8-6.708-3.8Z" transform="translate(0 0.302)"/><rect class="a" width="4.863" height="27.572" transform="translate(30.691 0.47)"/><path class="a" d="M31.2,0c8.551,0,14.749,6,14.749,14.237,0,8.119-6.316,14.237-14.749,14.237S16.491,22.4,16.491,14.237C16.491,6.277,22.925,0,31.2,0m.042,24.2a9.542,9.542,0,0,0,9.491-9.88c0-5.65-3.962-9.922-9.491-9.922-5.451,0-9.494,4.272-9.494,9.922A9.592,9.592,0,0,0,31.24,24.2" transform="translate(29.68 0.001)"/><path class="a" d="M56.354,13.571V25.377a18.8,18.8,0,0,1-10.667,3.136c-9.335,0-15.53-6.118-15.53-14.276C30.156,6.277,36.861,0,45.02,0a19.557,19.557,0,0,1,9.726,2.237L53.058,6.395a18.38,18.38,0,0,0-7.215-1.806c-6.47,0-10.432,4.079-10.432,9.729,0,5.527,4.236,9.606,9.962,9.606a18.614,18.614,0,0,0,6.274-1.1v-4.9H43.959V13.571Z" transform="translate(54.275 0.001)"/><path class="a" d="M43.413.168h8.825c7.333,0,11.02,4.043,11.02,9.8,0,3.808-1.571,6.826-5.02,8.433L65.3,27.74H59.61l-5.843-8.117q-1.176.118-2.472.118H48.276v8H43.413Zm4.863,4.474V15.427h3.606c4.55,0,6.12-2.433,6.12-5.454s-1.529-5.331-6.12-5.331Z" transform="translate(78.134 0.304)"/><path class="a" d="M54.669.168H72.59V4.642H59.532v7.722H71.378v4.314H59.532v6.591H72.59V27.74H54.669Z" transform="translate(98.393 0.303)"/><path class="a" d="M68.992,27.892h-5.1L76.837.084h1.1L90.878,27.892H85.66l-2.43-5.49H71.386Zm4.121-9.374H81.5l-4.2-9.491Z" transform="translate(114.996 0.152)"/><path class="a" d="M85.039,28.513a17.871,17.871,0,0,1-9.021-2.626l1.688-4.393A13.974,13.974,0,0,0,85.2,23.963c3.253,0,4.743-1.607,4.743-3.371,0-1.842-1.019-2.943-6-4.785C78.569,13.848,76.726,11.3,76.726,8c0-4.158,3.371-8,9.256-8A16.219,16.219,0,0,1,93.59,1.884L92.022,6.2a13.826,13.826,0,0,0-6.157-1.845c-2.9,0-4.239,1.607-4.239,3.531,0,1.767,1.492,2.861,5.376,4.275,6.157,2.394,7.921,4.824,7.921,8.433,0,4.9-3.726,7.921-9.883,7.921" transform="translate(136.817 0.001)"/><path class="a" d="M86.463.168h17.921V4.642H91.326v7.722h11.846v4.314H91.326v6.591h13.058V27.74H86.463Z" transform="translate(155.615 0.303)"/></g></g></svg>