<svg xmlns="http://www.w3.org/2000/svg" xmlns:xlink="http://www.w3.org/1999/xlink" width="122" height="122" viewBox="0 0 122 122"><defs><style>.a{fill:#fff;}.b{fill:#286c57;}.c{clip-path:url(#a);}</style><clipPath id="a"><rect class="a" width="56.94" height="47.126"/></clipPath></defs><g transform="translate(-1036 -4146)"><circle class="b" cx="61" cy="61" r="61" transform="translate(1036 4146)"/><g transform="translate(1068.53 4181.186)"><g class="c"><path class="a" d="M2.332,25.529v-.8q0-8.744,0-17.488c0-1.062.283-1.346,1.334-1.348H4.909c0-1.171-.008-2.308,0-3.445a2.449,2.449,0,0,1,4.9-.067c.016,1.143,0,2.285,0,3.511.395,0,.755,0,1.114,0,.887.005,1.216.33,1.217,1.22q0,7.7,0,15.4v2.991l.237.042A2.577,2.577,0,0,0,12.5,25c.01-1.575.028-3.151-.005-4.725a1.408,1.408,0,0,1,.749-1.35q6.7-4.2,13.373-8.437a1.229,1.229,0,0,1,1.364-.21c.486.278.487.75.485,1.236-.009,2.185,0,4.37,0,6.63.214-.112.373-.184.521-.275q5.849-3.591,11.7-7.186c.174-.107.346-.219.523-.319.869-.5,1.621-.081,1.627.916.012,2.045,0,4.091,0,6.136v.767c.3-.177.525-.3.74-.437q5.754-3.629,11.5-7.265a1.227,1.227,0,0,1,1.364-.2c.485.276.494.743.494,1.231q-.007,17.151,0,34.3c0,1.019-.292,1.312-1.307,1.312H1.331C.28,47.126,0,46.842,0,45.777q0-9.419,0-18.838c0-1.152.255-1.409,1.392-1.41h.94M40.8,45.14V12.97a2.221,2.221,0,0,0-.226.1c-3.929,2.42-7.853,4.848-11.793,7.251-.352.215-.315.477-.315.773q0,11.718,0,23.437c0,.2.018.4.028.6h2.073v-.706q0-3.773,0-7.546c0-.949.339-1.279,1.3-1.28q2.791,0,5.582,0c.993,0,1.317.323,1.318,1.318q0,3.773,0,7.546v.681Zm4.134.007v-.726q0-3.742,0-7.484c0-1.024.327-1.342,1.362-1.342q2.73,0,5.459,0c.938,0,1.251.311,1.251,1.243q0,3.834,0,7.669v.626h1.91V12.981c-.134.074-.207.11-.275.153q-5.649,3.56-11.3,7.111a.846.846,0,0,0-.4.859q.009,11.687,0,23.374v.669ZM26.476,12.975c-.208.118-.364.2-.512.291q-5.492,3.465-10.987,6.923a.942.942,0,0,0-.51.922q.023,11.686.011,23.373v.64h1.989v-.711q0-3.773,0-7.545c0-.923.347-1.272,1.246-1.273q2.821,0,5.643,0c.852,0,1.182.332,1.183,1.188q0,3.834,0,7.668v.679h1.936Zm-14,14.564H1.992v17.6H12.474ZM4.338,25.48h5.817V7.88H4.338ZM32.6,45.127h4.133V37.571H32.6ZM22.557,37.6H18.549v7.53h4.008Zm28.464,0H46.994V45.12h4.027ZM7.852,5.865c0-1.149.022-2.25-.021-3.349-.007-.186-.3-.361-.454-.541-.168.17-.475.334-.482.51C6.85,3.6,6.872,4.722,6.872,5.865Z" transform="translate(0 0)"/></g></g></g></svg>