<svg xmlns="http://www.w3.org/2000/svg" xmlns:xlink="http://www.w3.org/1999/xlink" width="122" height="122" viewBox="0 0 122 122"><defs><style>.a{fill:#fff;}.b{fill:#286c57;}.c{clip-path:url(#a);}</style><clipPath id="a"><rect class="a" width="61.975" height="55.989"/></clipPath></defs><g transform="translate(-1036 -4146)"><circle class="b" cx="61" cy="61" r="61" transform="translate(1036 4146)"/><g transform="translate(1066.012 4179.006)"><g class="c"><path class="a" d="M61.975,15.906a1.534,1.534,0,0,1-1.474.721c-2.985-.023-5.971-.01-8.956-.01h-.717c0,.293,0,.529,0,.765,0,9.965.017,19.93-.009,29.9a8.353,8.353,0,0,1-4.955,7.94,9.7,9.7,0,0,1-4.477.772c-10.974-.011-21.948.006-32.921-.011A8.541,8.541,0,0,1,.005,47.54c-.011-1.553,0-3.107,0-4.66,0-.975.335-1.315,1.3-1.316q3.389,0,6.778,0H8.8c0-.343,0-.621,0-.9q.125-17,.239-34.009a6.367,6.367,0,0,1,2.49-5.312A5.665,5.665,0,0,1,15.042.056Q21.457.031,27.872.038C36.848.036,45.826.113,54.8,0A6.875,6.875,0,0,1,61.9,5.532c.005.032.052.057.079.086ZM10.859,41.563H34.231c1.419,0,1.665.254,1.67,1.7,0,1.533-.032,3.068.034,4.6a6.421,6.421,0,0,0,9.185,5.449,6.3,6.3,0,0,0,3.664-6q.018-20.153,0-40.305A6.607,6.607,0,0,1,49.7,3.436c.27-.437.565-.857.88-1.332-.194-.015-.328-.034-.463-.034q-17.278,0-34.556.017a5,5,0,0,0-2.04.419,4.235,4.235,0,0,0-2.453,4.214q-.105,17.157-.25,34.313c0,.157.022.313.038.531M2.093,43.629a34.775,34.775,0,0,0,.038,4.811A6.293,6.293,0,0,0,8.66,53.948q13.765.021,27.53,0a3.943,3.943,0,0,0,.422-.037c-.609-.863-1.274-1.673-1.789-2.57a8.112,8.112,0,0,1-.952-4.311c.025-1.123,0-2.247,0-3.4ZM59.9,14.56c0-2.907.1-5.768-.035-8.617A4.367,4.367,0,0,0,55.89,2.1a4.585,4.585,0,0,0-5.06,4.732c-.011,2.4,0,4.794,0,7.192,0,.173.023.346.037.535Z" transform="translate(0 0)"/><path class="a" d="M149.455,52.469a42.09,42.09,0,0,1-.216,4.458,7.108,7.108,0,0,1-3.087,4.866c-1.583,1.111-3.2,2.176-4.782,3.287a1.235,1.235,0,0,1-1.6.009c-1.714-1.205-3.5-2.317-5.16-3.589a7.187,7.187,0,0,1-2.886-5.8c-.045-2.318,0-4.638-.018-6.957a1.186,1.186,0,0,1,.745-1.188q3.716-1.814,7.423-3.647a1.448,1.448,0,0,1,1.379.015q3.678,1.822,7.367,3.623a1.249,1.249,0,0,1,.783,1.289c-.032,1.209-.009,2.42-.009,3.63l.06,0m-2.02.394-.068,0c0-1.068.022-2.138-.018-3.2a.868.868,0,0,0-.389-.628q-3.01-1.534-6.056-3a.924.924,0,0,0-.707,0c-2.012.967-4.007,1.967-6.015,2.943a.658.658,0,0,0-.444.684c.018,2-.017,3.992.017,5.987a5.4,5.4,0,0,0,2.406,4.506c1.314.932,2.66,1.819,3.973,2.752a.615.615,0,0,0,.84-.016c1.317-.928,2.651-1.832,3.982-2.741a5.015,5.015,0,0,0,2.236-3.32,34.788,34.788,0,0,0,.243-3.968" transform="translate(-111.261 -36.953)"/><path class="a" d="M120.661,200.661h11.5a4.554,4.554,0,0,1,.664.02.912.912,0,0,1,.844.881.9.9,0,0,1-.708,1.042,2.76,2.76,0,0,1-.715.084q-11.586.006-23.172,0a2.66,2.66,0,0,1-.774-.093.9.9,0,0,1-.679-1.01.921.921,0,0,1,.825-.9,3.706,3.706,0,0,1,.664-.023h11.556" transform="translate(-90.909 -169.511)"/><path class="a" d="M120.658,232.471H109.1a3.227,3.227,0,0,1-.6-.018,1,1,0,0,1-.1-1.974,2.981,2.981,0,0,1,.661-.045q11.556,0,23.113,0c1.009,0,1.491.322,1.5,1,.014.7-.479,1.035-1.526,1.035h-11.5" transform="translate(-90.904 -194.663)"/><path class="a" d="M165.959,97.6c1.044-1.048,2.02-2.032,3-3.01a2.716,2.716,0,0,1,.559-.453.9.9,0,0,1,1.154.2.915.915,0,0,1,.144,1.164,2.289,2.289,0,0,1-.375.468q-1.767,1.78-3.545,3.55c-.687.682-1.174.68-1.857,0-.529-.525-1.053-1.056-1.575-1.587-.608-.618-.684-1.231-.215-1.681s1.025-.379,1.635.229c.342.341.67.7,1.072,1.115" transform="translate(-137.656 -79.415)"/></g></g></g></svg>