<svg xmlns="http://www.w3.org/2000/svg" xmlns:xlink="http://www.w3.org/1999/xlink" width="136" height="136" viewBox="0 0 136 136"><defs><style>.a{fill:#fff;}.b{fill:#01b980;}.c{clip-path:url(#a);}</style><clipPath id="a"><rect class="a" width="67.469" height="81.423"/></clipPath></defs><g transform="translate(-892 -2910)"><circle class="b" cx="68" cy="68" r="68" transform="translate(892 2910)"/><g transform="translate(926.265 2937.553)"><g class="c"><path class="a" d="M110.478,96.515c-3.741,2.518-7.96,2.968-12.067,3.657-6.692,1.122-9.252,6.447-9.654,11.652a11.624,11.624,0,0,0,1.254,6.041c.118.243.261.474.443.8.533-.75,1-1.425,1.484-2.087A62.5,62.5,0,0,1,102.5,105.424c.149-.124.3-.246.461-.356a1.573,1.573,0,0,1,2.174.2,1.547,1.547,0,0,1-.194,2.23c-1.109,1.007-2.278,1.951-3.36,2.986A50.334,50.334,0,0,0,90.49,125.136a24.6,24.6,0,0,0-2.263,7.274c-.015.11-.042.218-.066.326a1.617,1.617,0,0,1-1.806,1.445,1.51,1.51,0,0,1-1.281-1.9q.851-3.545,1.923-7.036a16.439,16.439,0,0,1,1.33-2.861,1.069,1.069,0,0,0-.052-1.27,16.394,16.394,0,0,1,.743-19.023c2.221-2.962,5.33-4.314,8.825-5.01,2.229-.443,4.469-.839,6.682-1.351a12.177,12.177,0,0,0,5.659-3.022c1.054-.987,2.387-.691,2.737.653,1.7,6.512,2.472,13.09.967,19.75-1,4.411-3.149,8.1-7.164,10.471a17.975,17.975,0,0,1-8.676,2.283,1.53,1.53,0,0,1-1.664-1.494c-.041-.936.583-1.52,1.584-1.669a30.613,30.613,0,0,0,5.051-.924c4.333-1.424,6.62-4.738,7.7-8.989a32.243,32.243,0,0,0,.425-11.992c-.17-1.391-.431-2.771-.671-4.283" transform="translate(-66.106 -71.629)"/><path class="a" d="M133.685,107.509l3.456,4.3a1.4,1.4,0,0,1,.265,1.691,2.066,2.066,0,0,1-1.257.9,1.9,1.9,0,0,1-1.426-.607c-1.93-2.292-3.8-4.638-5.661-6.985a1.54,1.54,0,0,1,.256-2.4q3.484-2.841,7-5.638a1.576,1.576,0,1,1,1.959,2.461c-1.165.971-2.355,1.912-3.535,2.866l.06.238c1.409-.158,2.843-.2,4.224-.493,12.558-2.675,20.875-10.107,24.307-22.5,3.94-14.227-3.6-29.547-17.168-35.558-.253-.112-.515-.21-.758-.34a1.541,1.541,0,0,1-.794-2.027,1.478,1.478,0,0,1,2.063-.82,49.738,49.738,0,0,1,6.924,3.922c9.8,7.44,14.524,17.413,13.775,29.694A33.532,33.532,0,0,1,140.872,106.7c-1.944.41-3.954.508-5.934.742-.351.042-.708.041-1.254.071" transform="translate(-99.988 -32.985)"/><path class="a" d="M33.782,6.953c-.266-.352-.454-.615-.656-.867C32.257,5,31.379,3.93,30.514,2.846c-.748-.938-.726-1.893.042-2.492s1.632-.435,2.384.473,1.468,1.81,2.2,2.718c1.079,1.34,2.164,2.675,3.232,4.023a1.623,1.623,0,0,1-.251,2.592q-3.362,2.726-6.745,5.427a2.413,2.413,0,0,1-.936.506,1.47,1.47,0,0,1-1.683-.781,1.517,1.517,0,0,1,.381-1.952c1.205-1.016,2.444-1.992,3.669-2.985l-.044-.224c-1.433.164-2.891.211-4.3.511C15.844,13.359,7.51,20.834,4.149,33.327A30.2,30.2,0,0,0,21.156,68.608c1.381.618,1.854,1.408,1.427,2.382-.418.954-1.362,1.158-2.713.51C8.42,66,1.7,56.979.223,44.363A33.7,33.7,0,0,1,28,7.514c1.608-.273,3.252-.338,4.88-.5.263-.026.528-.038.905-.064" transform="translate(-0.001 0)"/></g></g></g></svg>