<svg xmlns="http://www.w3.org/2000/svg" xmlns:xlink="http://www.w3.org/1999/xlink" width="122" height="122" viewBox="0 0 122 122"><defs><style>.a{fill:#fff;}.b{fill:#286c57;}.c{clip-path:url(#a);}</style><clipPath id="a"><rect class="a" width="59.501" height="60.125"/></clipPath></defs><g transform="translate(-1036 -4146)"><circle class="b" cx="61" cy="61" r="61" transform="translate(1036 4146)"/><g transform="translate(1071.405 4176.938)"><g class="c"><path class="a" d="M58.984,33.574a1.984,1.984,0,0,1-.006-2.239,3.662,3.662,0,0,0,.351-2.987,3.568,3.568,0,0,0-2.012-2.183,2.063,2.063,0,0,1-1.348-1.856,3.639,3.639,0,0,0-1.477-2.6,3.686,3.686,0,0,0-2.978-.552,1.871,1.871,0,0,1-2.023-.668,3.765,3.765,0,0,0-1.721-1.135c0-5.085.005-11.632,0-14.9a4.436,4.436,0,0,0-1-2.789A5.065,5.065,0,0,0,44.049.005L44.028,0H12.7L12.655,0a7.949,7.949,0,0,0-3.413,2.4l-.02.021C6.572,5.113,4.18,7.527,1.744,9.9A5.512,5.512,0,0,0,0,14.114c.023,10.41.021,20.994.019,31.23q0,4.856,0,9.711v.1c0,.183,0,.366.006.548a4.447,4.447,0,0,0,4.555,4.418l15.439,0q11.582,0,23.167,0a4.127,4.127,0,0,0,.9-.071c2.633-.589,4-2.741,3.657-5.757-.007-.061-.008-.375-.01-.739,0-.423,0-.979-.016-1.524.622.4,1.336.849,2.082,1.247a2.678,2.678,0,0,0,1.462.341,1.984,1.984,0,0,0,1.743-2.187c.01-2.362.009-4.8,0-7.243,0-.3.04-.39.355-.486a3.444,3.444,0,0,0,2.612-3.1,2.034,2.034,0,0,1,1.339-1.86,3.579,3.579,0,0,0,2.019-2.187,3.654,3.654,0,0,0-.343-2.978m-1.625-3.747a3.885,3.885,0,0,1-.281.639,3.652,3.652,0,0,0,0,3.963,1.8,1.8,0,0,1,.261,1.487A1.727,1.727,0,0,1,56.3,36.922a3.71,3.71,0,0,0-2.373,3.247,1.8,1.8,0,0,1-.658,1.331,1.718,1.718,0,0,1-1.407.2,3.7,3.7,0,0,0-3.868,1.265,1.7,1.7,0,0,1-1.271.655h0a1.68,1.68,0,0,1-1.262-.653,3.627,3.627,0,0,0-2.845-1.385,4.715,4.715,0,0,0-1.022.119,1.731,1.731,0,0,1-1.441-.225,1.794,1.794,0,0,1-.655-1.358,3.585,3.585,0,0,0-2.287-3.173,1.86,1.86,0,0,1-1.1-1.061,1.8,1.8,0,0,1,.262-1.459,3.664,3.664,0,0,0-.007-3.965,1.586,1.586,0,0,1,.806-2.491,3.618,3.618,0,0,0,2.33-3.2,1.771,1.771,0,0,1,.65-1.34A1.745,1.745,0,0,1,41.6,23.2a3.7,3.7,0,0,0,3.863-1.277,1.69,1.69,0,0,1,1.263-.649h0a1.643,1.643,0,0,1,1.229.62,3.765,3.765,0,0,0,3.97,1.3,1.634,1.634,0,0,1,1.356.212,1.684,1.684,0,0,1,.639,1.261A3.711,3.711,0,0,0,56.355,28a1.667,1.667,0,0,1,1.068,1.661c-.02.05-.041.107-.064.17M13.164,9.435l0-1.564c0-1.766,0-3.591-.01-5.387a.509.509,0,0,1,.087-.366.413.413,0,0,1,.309-.057,3.071,3.071,0,0,0,.33,0l.15,0H42.766c1.995,0,2.924.925,2.925,2.91,0,1.257,0,2.994,0,4.88,0,3.292,0,7.04,0,9.5a3.686,3.686,0,0,0-1.673,1.085,2.012,2.012,0,0,1-2.176.706,3.6,3.6,0,0,0-4.388,3.207A1.9,1.9,0,0,1,36.2,26.125a3.6,3.6,0,0,0-1.691,5.286,1.788,1.788,0,0,1,0,2.072,3.367,3.367,0,0,0-.528,2.391,3.622,3.622,0,0,0,2.329,2.957,1.631,1.631,0,0,1,1.117,1.436,3.69,3.69,0,0,0,3.037,3.549v.538q0,1,0,1.993c0,1.663,0,3.382-.008,5.073a2.069,2.069,0,0,0,1,1.959,2.03,2.03,0,0,0,2.251-.112c.341-.214.685-.423,1.028-.632.312-.19.633-.385.951-.583,0,.6.008,1.257.014,1.711,0,.326.007.583,0,.631-.01.207-.01.416-.01.618,0,.181,0,.368-.007.551a2.448,2.448,0,0,1-2.58,2.5c-12.2,0-25.132,0-38.431,0A2.426,2.426,0,0,1,2.1,55.466q0-20.88,0-41.759c0-.146.009-.3.019-.455,0-.035,0-.07.006-.107H9.455c2.46,0,3.708-1.249,3.709-3.71M43.585,50.9c-.219.131-.439.263-.657.4-.11.067-.228.128-.366.2h0V43.665a1.661,1.661,0,0,1,1.366.717A3.477,3.477,0,0,0,47.89,45.47a5.053,5.053,0,0,0,1.655-1.141,2.015,2.015,0,0,1,1.306-.667V51.5q-.367-.224-.72-.436c-.685-.413-1.332-.8-1.958-1.224a2.34,2.34,0,0,0-2.875-.01c-.553.381-1.143.735-1.713,1.076M11.052,6.12c0,1.228,0,2.5-.006,3.746,0,.518-.184,1.138-1.027,1.154-1.459.028-2.944.028-4.38.027q-.872,0-1.744,0H3.859l7.191-7.2v.762q0,.752,0,1.5" transform="translate(0 0.001)"/><path class="a" d="M117.9,45.795c.223.011.446.015.666.015.242,0,.48,0,.709-.011,4.357.005,12.755.011,16.595,0a2.1,2.1,0,0,0,2.16-2.139c.02-.82.013-1.652.007-2.458v-.175a2.11,2.11,0,0,0-2.316-2.325c-1.144-.005-2.287,0-3.431,0h-4.855q-4.647,0-9.293,0a2.061,2.061,0,0,0-2.312,1.957,25.47,25.47,0,0,0,0,3.169,2.066,2.066,0,0,0,2.073,1.971m.05-2.089V40.8l.045,0c.112-.007.21-.014.308-.014h17.228c.029,0,.061,0,.093-.007s.044,0,.059,0l.054.038a1.167,1.167,0,0,1,.206.167c.021.707.019,1.406.017,2.146q0,.27,0,.545l-.137.01c-.175.013-.34.026-.5.026-3.71,0-12.048,0-16.1,0-.17,0-.338-.005-.508-.005l-.455,0-.31,0" transform="translate(-97.709 -32.655)"/><path class="a" d="M65.915,254.11a3.911,3.911,0,0,0-.615-.033h-.05q-10.684,0-21.368,0h-.114a3.791,3.791,0,0,0-.427.012,1.045,1.045,0,1,0,.02,2.089c.084.008.167.01.25.01l.147,0,.143,0h21.53a2.151,2.151,0,0,0,.512-.035.988.988,0,0,0,.854-1.066.957.957,0,0,0-.882-.973" transform="translate(-35.701 -214.421)"/><path class="a" d="M43.866,135.718a.97.97,0,0,0-.646.125,1.478,1.478,0,0,0-.639.934c-.017.328.321.678.607.913a1.067,1.067,0,0,0,.683.139h.091c3.532,0,7.121,0,10.739,0s7.268,0,10.922,0c.033,0,.067,0,.1,0a.991.991,0,0,0,.676-.142,1.55,1.55,0,0,0,.59-.956c.008-.412-.518-.816-.624-.893a1.121,1.121,0,0,0-.684-.12c-.049,0-.1.005-.144,0q-4.437-.006-8.875,0H52.729q-4.366,0-8.733,0l-.13,0" transform="translate(-35.935 -114.534)"/><path class="a" d="M66.034,175.22a1.7,1.7,0,0,0-.483-.033l-.137,0h-21.6a1.006,1.006,0,0,0-.137,0,1.774,1.774,0,0,0-.482.032,1,1,0,0,0-.825,1.035.977.977,0,0,0,.937,1,4.775,4.775,0,0,0,.5.015H65.536a3.75,3.75,0,0,0,.393-.016.946.946,0,0,0,.919-.934.982.982,0,0,0-.814-1.1" transform="translate(-35.756 -147.843)"/><path class="a" d="M66.038,214.76h0a4.056,4.056,0,0,0-.483-.016h-.118q-10.713,0-21.426,0h-.124a3.731,3.731,0,0,0-.538.022.9.9,0,0,0-.849.949,1.8,1.8,0,0,0,.58.962.847.847,0,0,0,.618.136l.106,0q4.488.006,8.977,0H65.523c.048,0,.1,0,.144,0s.1,0,.155,0a1.339,1.339,0,0,0,.252-.02.973.973,0,0,0,.884-1.04.957.957,0,0,0-.921-1" transform="translate(-35.863 -181.229)"/><path class="a" d="M55,312.012a4.274,4.274,0,0,0-.447-.014H50.467l-2.644,0q-2.022,0-4.043,0h0c-.606,0-1,.291-1.06.78a1.446,1.446,0,0,0,.35,1.033,1.249,1.249,0,0,0,.923.256c2.571.011,5.185.01,7.713.009h1.862l.4,0,.4,0c.2,0,.405,0,.607-.015a1.059,1.059,0,0,0,1.01-1.02A1.034,1.034,0,0,0,55,312.012" transform="translate(-36.045 -263.304)"/><path class="a" d="M258.711,159.772H258.7a7.506,7.506,0,0,0,0,15.013h0a7.506,7.506,0,0,0,.009-15.013m5.42,7.544A5.424,5.424,0,0,1,258.7,172.7h-.006a5.414,5.414,0,0,1-5.4-5.411,5.347,5.347,0,0,1,5.4-5.406h.005a5.4,5.4,0,0,1,5.432,5.435" transform="translate(-211.982 -134.836)"/></g></g></g></svg>